# Exported from Wings 3D 1.4.1
mtllib planet.mtl
o sphere1
#114 vertices, 128 faces
v 0.38268343 0.92387953 0.0000000e+0
v 0.35355339 0.92387953 0.14644661
v 0.27059805 0.92387953 0.27059805
v 0.14644661 0.92387953 0.35355339
v 2.3431828e-17 0.92387953 0.38268343
v -0.14644661 0.92387953 0.35355339
v -0.27059805 0.92387953 0.27059805
v -0.35355339 0.92387953 0.14644661
v -0.38268343 0.92387953 4.6863656e-17
v -0.35355339 0.92387953 -0.14644661
v -0.27059805 0.92387953 -0.27059805
v -0.14644661 0.92387953 -0.35355339
v -7.0295484e-17 0.92387953 -0.38268343
v 0.14644661 0.92387953 -0.35355339
v 0.27059805 0.92387953 -0.27059805
v 0.35355339 0.92387953 -0.14644661
v 0.70710678 0.70710678 0.0000000e+0
v 0.65328148 0.70710678 0.27059805
v 0.50000000 0.70710678 0.50000000
v 0.27059805 0.70710678 0.65328148
v 4.3296373e-17 0.70710678 0.70710678
v -0.27059805 0.70710678 0.65328148
v -0.50000000 0.70710678 0.50000000
v -0.65328148 0.70710678 0.27059805
v -0.70710678 0.70710678 8.6592746e-17
v -0.65328148 0.70710678 -0.27059805
v -0.50000000 0.70710678 -0.50000000
v -0.27059805 0.70710678 -0.65328148
v -1.2988912e-16 0.70710678 -0.70710678
v 0.27059805 0.70710678 -0.65328148
v 0.50000000 0.70710678 -0.50000000
v 0.65328148 0.70710678 -0.27059805
v 0.92387953 0.38268343 0.0000000e+0
v 0.85355339 0.38268343 0.35355339
v 0.65328148 0.38268343 0.65328148
v 0.35355339 0.38268343 0.85355339
v 5.6569437e-17 0.38268343 0.92387953
v -0.35355339 0.38268343 0.85355339
v -0.65328148 0.38268343 0.65328148
v -0.85355339 0.38268343 0.35355339
v -0.92387953 0.38268343 1.1313887e-16
v -0.85355339 0.38268343 -0.35355339
v -0.65328148 0.38268343 -0.65328148
v -0.35355339 0.38268343 -0.85355339
v -1.6970831e-16 0.38268343 -0.92387953
v 0.35355339 0.38268343 -0.85355339
v 0.65328148 0.38268343 -0.65328148
v 0.85355339 0.38268343 -0.35355339
v 1.00000000 6.1230318e-17 0.0000000e+0
v 0.92387953 6.1230318e-17 0.38268343
v 0.70710678 6.1230318e-17 0.70710678
v 0.38268343 6.1230318e-17 0.92387953
v 6.1230318e-17 6.1230318e-17 1.00000000
v -0.38268343 6.1230318e-17 0.92387953
v -0.70710678 6.1230318e-17 0.70710678
v -0.92387953 6.1230318e-17 0.38268343
v -1.00000000 6.1230318e-17 1.2246064e-16
v -0.92387953 6.1230318e-17 -0.38268343
v -0.70710678 6.1230318e-17 -0.70710678
v -0.38268343 6.1230318e-17 -0.92387953
v -1.8369095e-16 6.1230318e-17 -1.00000000
v 0.38268343 6.1230318e-17 -0.92387953
v 0.70710678 6.1230318e-17 -0.70710678
v 0.92387953 6.1230318e-17 -0.38268343
v 0.92387953 -0.38268343 0.0000000e+0
v 0.85355339 -0.38268343 0.35355339
v 0.65328148 -0.38268343 0.65328148
v 0.35355339 -0.38268343 0.85355339
v 5.6569437e-17 -0.38268343 0.92387953
v -0.35355339 -0.38268343 0.85355339
v -0.65328148 -0.38268343 0.65328148
v -0.85355339 -0.38268343 0.35355339
v -0.92387953 -0.38268343 1.1313887e-16
v -0.85355339 -0.38268343 -0.35355339
v -0.65328148 -0.38268343 -0.65328148
v -0.35355339 -0.38268343 -0.85355339
v -1.6970831e-16 -0.38268343 -0.92387953
v 0.35355339 -0.38268343 -0.85355339
v 0.65328148 -0.38268343 -0.65328148
v 0.85355339 -0.38268343 -0.35355339
v 0.70710678 -0.70710678 0.0000000e+0
v 0.65328148 -0.70710678 0.27059805
v 0.50000000 -0.70710678 0.50000000
v 0.27059805 -0.70710678 0.65328148
v 4.3296373e-17 -0.70710678 0.70710678
v -0.27059805 -0.70710678 0.65328148
v -0.50000000 -0.70710678 0.50000000
v -0.65328148 -0.70710678 0.27059805
v -0.70710678 -0.70710678 8.6592746e-17
v -0.65328148 -0.70710678 -0.27059805
v -0.50000000 -0.70710678 -0.50000000
v -0.27059805 -0.70710678 -0.65328148
v -1.2988912e-16 -0.70710678 -0.70710678
v 0.27059805 -0.70710678 -0.65328148
v 0.50000000 -0.70710678 -0.50000000
v 0.65328148 -0.70710678 -0.27059805
v 0.38268343 -0.92387953 0.0000000e+0
v 0.35355339 -0.92387953 0.14644661
v 0.27059805 -0.92387953 0.27059805
v 0.14644661 -0.92387953 0.35355339
v 2.3431828e-17 -0.92387953 0.38268343
v -0.14644661 -0.92387953 0.35355339
v -0.27059805 -0.92387953 0.27059805
v -0.35355339 -0.92387953 0.14644661
v -0.38268343 -0.92387953 4.6863656e-17
v -0.35355339 -0.92387953 -0.14644661
v -0.27059805 -0.92387953 -0.27059805
v -0.14644661 -0.92387953 -0.35355339
v -7.0295484e-17 -0.92387953 -0.38268343
v 0.14644661 -0.92387953 -0.35355339
v 0.27059805 -0.92387953 -0.27059805
v 0.35355339 -0.92387953 -0.14644661
v 0.0000000e+0 1.00000000 0.0000000e+0
v 0.0000000e+0 -1.00000000 0.0000000e+0
vt 0.0000000e+0 0.96193977
vt 1.1102230e-16 0.30865828
vt 1.1102230e-16 0.50000000
vt 1.1102230e-16 0.69134172
vt 1.1102230e-16 0.85355339
vt 1.6653345e-16 3.8060234e-2
vt 1.6653345e-16 0.14644661
vt 6.2500000e-2 0.96193977
vt 6.2500000e-2 0.85355339
vt 6.2500000e-2 0.30865828
vt 6.2500000e-2 0.50000000
vt 6.2500000e-2 0.69134172
vt 6.2500000e-2 3.8060234e-2
vt 6.2500000e-2 0.14644661
vt 0.12500000 0.85355339
vt 0.12500000 0.96193977
vt 0.12500000 3.8060234e-2
vt 0.12500000 0.14644661
vt 0.12500000 0.30865828
vt 0.12500000 0.50000000
vt 0.12500000 0.69134172
vt 0.18750000 0.85355339
vt 0.18750000 0.30865828
vt 0.18750000 0.50000000
vt 0.18750000 0.69134172
vt 0.18750000 0.96193977
vt 0.18750000 3.8060234e-2
vt 0.18750000 0.14644661
vt 0.25000000 0.85355339
vt 0.25000000 0.96193977
vt 0.25000000 0.69134172
vt 0.25000000 3.8060234e-2
vt 0.25000000 0.14644661
vt 0.25000000 0.30865828
vt 0.25000000 0.50000000
vt 0.31250000 0.85355339
vt 0.31250000 0.96193977
vt 0.31250000 0.50000000
vt 0.31250000 0.69134172
vt 0.31250000 0.14644661
vt 0.31250000 0.30865828
vt 0.31250000 3.8060234e-2
vt 0.37500000 0.50000000
vt 0.37500000 0.69134172
vt 0.37500000 0.85355339
vt 0.37500000 0.96193977
vt 0.37500000 0.30865828
vt 0.37500000 3.8060234e-2
vt 0.37500000 0.14644661
vt 0.43750000 0.85355339
vt 0.43750000 0.96193977
vt 0.43750000 0.14644661
vt 0.43750000 0.30865828
vt 0.43750000 0.50000000
vt 0.43750000 0.69134172
vt 0.43750000 3.8060234e-2
vt 0.50000000 0.85355339
vt 0.50000000 0.96193977
vt 0.50000000 1.00000000
vt 0.50000000 0.14644661
vt 0.50000000 0.30865828
vt 0.50000000 0.50000000
vt 0.50000000 0.69134172
vt 0.50000000 0.0000000e+0
vt 0.50000000 3.8060234e-2
vt 0.56250000 0.96193977
vt 0.56250000 3.8060234e-2
vt 0.56250000 0.14644661
vt 0.56250000 0.30865828
vt 0.56250000 0.50000000
vt 0.56250000 0.69134172
vt 0.56250000 0.85355339
vt 0.62500000 0.85355339
vt 0.62500000 3.8060234e-2
vt 0.62500000 0.14644661
vt 0.62500000 0.30865828
vt 0.62500000 0.50000000
vt 0.62500000 0.69134172
vt 0.62500000 0.96193977
vt 0.68750000 0.85355339
vt 0.68750000 0.96193977
vt 0.68750000 3.8060234e-2
vt 0.68750000 0.14644661
vt 0.68750000 0.30865828
vt 0.68750000 0.50000000
vt 0.68750000 0.69134172
vt 0.75000000 0.69134172
vt 0.75000000 0.85355339
vt 0.75000000 3.8060234e-2
vt 0.75000000 0.14644661
vt 0.75000000 0.30865828
vt 0.75000000 0.50000000
vt 0.75000000 0.96193977
vt 0.81250000 0.85355339
vt 0.81250000 0.96193977
vt 0.81250000 3.8060234e-2
vt 0.81250000 0.14644661
vt 0.81250000 0.30865828
vt 0.81250000 0.50000000
vt 0.81250000 0.69134172
vt 0.87500000 0.30865828
vt 0.87500000 0.50000000
vt 0.87500000 0.69134172
vt 0.87500000 0.85355339
vt 0.87500000 0.96193977
vt 0.87500000 3.8060234e-2
vt 0.87500000 0.14644661
vt 0.93750000 0.85355339
vt 0.93750000 0.96193977
vt 0.93750000 0.30865828
vt 0.93750000 0.50000000
vt 0.93750000 0.69134172
vt 0.93750000 3.8060234e-2
vt 0.93750000 0.14644661
vt 1.00000000 0.85355339
vt 1.00000000 0.96193977
vt 1.00000000 0.14644661
vt 1.00000000 0.30865828
vt 1.00000000 0.50000000
vt 1.00000000 0.69134172
vt 1.00000000 3.8060234e-2
vn 0.38219484 0.92408176 -9.9385732e-17
vn 0.35310199 0.92408176 0.14625963
vn 0.27025256 0.92408176 0.27025256
vn 0.14625963 0.92408176 0.35310199
vn 0.0000000e+0 0.92408176 0.38219484
vn -0.14625963 0.92408176 0.35310199
vn -0.27025256 0.92408176 0.27025256
vn -0.35310199 0.92408176 0.14625963
vn -0.38219484 0.92408176 4.6143376e-17
vn -0.35310199 0.92408176 -0.14625963
vn -0.27025256 0.92408176 -0.27025256
vn -0.14625963 0.92408176 -0.35310199
vn -4.2593885e-17 0.92408176 -0.38219484
vn 0.14625963 0.92408176 -0.35310199
vn 0.27025256 0.92408176 -0.27025256
vn 0.35310199 0.92408176 -0.14625963
vn 0.70658450 0.70762868 -5.7154588e-17
vn 0.65279895 0.70762868 0.27039818
vn 0.49963069 0.70762868 0.49963069
vn 0.27039818 0.70762868 0.65279895
vn 7.1443235e-18 0.70762868 0.70658450
vn -0.27039818 0.70762868 0.65279895
vn -0.49963069 0.70762868 0.49963069
vn -0.65279895 0.70762868 0.27039818
vn -0.70658450 0.70762868 1.3574215e-16
vn -0.65279895 0.70762868 -0.27039818
vn -0.49963069 0.70762868 -0.49963069
vn -0.27039818 0.70762868 -0.65279895
vn -5.7154588e-17 0.70762868 -0.70658450
vn 0.27039818 0.70762868 -0.65279895
vn 0.49963069 0.70762868 -0.49963069
vn 0.65279895 0.70762868 -0.27039818
vn 0.92368212 0.38315969 -1.1503246e-16
vn 0.85337100 0.38315969 0.35347784
vn 0.65314189 0.38315969 0.65314189
vn 0.35347784 0.38315969 0.85337100
vn 7.1895288e-18 0.38315969 0.92368212
vn -0.35347784 0.38315969 0.85337100
vn -0.65314189 0.38315969 0.65314189
vn -0.85337100 0.38315969 0.35347784
vn -0.92368212 0.38315969 1.4379058e-16
vn -0.85337100 0.38315969 -0.35347784
vn -0.65314189 0.38315969 -0.65314189
vn -0.35347784 0.38315969 -0.85337100
vn -1.0784293e-16 0.38315969 -0.92368212
vn 0.35347784 0.38315969 -0.85337100
vn 0.65314189 0.38315969 -0.65314189
vn 0.85337100 0.38315969 -0.35347784
vn 1.00000000 0.0000000e+0 -1.5858068e-16
vn 0.92387953 7.2082126e-18 0.38268343
vn 0.70710678 -7.2082126e-18 0.70710678
vn 0.38268343 0.0000000e+0 0.92387953
vn 0.0000000e+0 0.0000000e+0 1.00000000
vn -0.38268343 0.0000000e+0 0.92387953
vn -0.70710678 7.2082126e-18 0.70710678
vn -0.92387953 -7.2082126e-18 0.38268343
vn -1.00000000 0.0000000e+0 1.1533140e-16
vn -0.92387953 -7.2082126e-18 -0.38268343
vn -0.70710678 -7.2082126e-18 -0.70710678
vn -0.38268343 -7.2082126e-18 -0.92387953
vn -1.4416425e-16 7.2082126e-18 -1.00000000
vn 0.38268343 0.0000000e+0 -0.92387953
vn 0.70710678 7.2082126e-18 -0.70710678
vn 0.92387953 7.2082126e-18 -0.38268343
vn 0.92368212 -0.38315969 -1.2941152e-16
vn 0.85337100 -0.38315969 0.35347784
vn 0.65314189 -0.38315969 0.65314189
vn 0.35347784 -0.38315969 0.85337100
vn 0.0000000e+0 -0.38315969 0.92368212
vn -0.35347784 -0.38315969 0.85337100
vn -0.65314189 -0.38315969 0.65314189
vn -0.85337100 -0.38315969 0.35347784
vn -0.92368212 -0.38315969 1.4379058e-16
vn -0.85337100 -0.38315969 -0.35347784
vn -0.65314189 -0.38315969 -0.65314189
vn -0.35347784 -0.38315969 -0.85337100
vn -1.0784293e-16 -0.38315969 -0.92368212
vn 0.35347784 -0.38315969 -0.85337100
vn 0.65314189 -0.38315969 -0.65314189
vn 0.85337100 -0.38315969 -0.35347784
vn 0.70658450 -0.70762868 -6.4298911e-17
vn 0.65279895 -0.70762868 0.27039818
vn 0.49963069 -0.70762868 0.49963069
vn 0.27039818 -0.70762868 0.65279895
vn 0.0000000e+0 -0.70762868 0.70658450
vn -0.27039818 -0.70762868 0.65279895
vn -0.49963069 -0.70762868 0.49963069
vn -0.65279895 -0.70762868 0.27039818
vn -0.70658450 -0.70762868 1.5003079e-16
vn -0.65279895 -0.70762868 -0.27039818
vn -0.49963069 -0.70762868 -0.49963069
vn -0.27039818 -0.70762868 -0.65279895
vn -5.7154588e-17 -0.70762868 -0.70658450
vn 0.27039818 -0.70762868 -0.65279895
vn 0.49963069 -0.70762868 -0.49963069
vn 0.65279895 -0.70762868 -0.27039818
vn 0.38219484 -0.92408176 4.6498325e-16
vn 0.35310199 -0.92408176 0.14625963
vn 0.27025256 -0.92408176 0.27025256
vn 0.14625963 -0.92408176 0.35310199
vn 3.5494904e-18 -0.92408176 0.38219484
vn -0.14625963 -0.92408176 0.35310199
vn -0.27025256 -0.92408176 0.27025256
vn -0.35310199 -0.92408176 0.14625963
vn -0.38219484 -0.92408176 1.2423216e-16
vn -0.35310199 -0.92408176 -0.14625963
vn -0.27025256 -0.92408176 -0.27025256
vn -0.14625963 -0.92408176 -0.35310199
vn -3.5494904e-17 -0.92408176 -0.38219484
vn 0.14625963 -0.92408176 -0.35310199
vn 0.27025256 -0.92408176 -0.27025256
vn 0.35310199 -0.92408176 -0.14625963
vn -7.0801599e-18 1.00000000 -4.3365979e-17
vn -8.8501998e-18 -1.00000000 -6.2393909e-17
g sphere1_sphere1_auv
usemtl sphere1_auv
s 1
f 1/16/1 17/15/17 32/22/32 16/26/16
f 1/16/1 113/59/113 2/8/2
f 2/8/2 18/9/18 17/15/17 1/16/1
f 2/8/2 113/59/113 3/1/3
f 3/1/3 19/5/19 18/9/18 2/8/2
f 3/116/3 113/59/113 4/109/4
f 4/109/4 20/108/20 19/115/19 3/116/3
f 4/109/4 113/59/113 5/105/5
f 5/105/5 21/104/21 20/108/20 4/109/4
f 5/105/5 113/59/113 6/95/6
f 6/95/6 22/94/22 21/104/21 5/105/5
f 6/95/6 113/59/113 7/93/7
f 7/93/7 23/88/23 22/94/22 6/95/6
f 7/93/7 113/59/113 8/81/8
f 8/81/8 24/80/24 23/88/23 7/93/7
f 8/81/8 113/59/113 9/79/9
f 9/79/9 25/73/25 24/80/24 8/81/8
f 9/79/9 113/59/113 10/66/10
f 10/66/10 26/72/26 25/73/25 9/79/9
f 10/66/10 113/59/113 11/58/11
f 11/58/11 27/57/27 26/72/26 10/66/10
f 11/58/11 113/59/113 12/51/12
f 12/51/12 28/50/28 27/57/27 11/58/11
f 12/51/12 113/59/113 13/46/13
f 13/46/13 29/45/29 28/50/28 12/51/12
f 13/46/13 113/59/113 14/37/14
f 14/37/14 30/36/30 29/45/29 13/46/13
f 14/37/14 113/59/113 15/30/15
f 15/30/15 31/29/31 30/36/30 14/37/14
f 15/30/15 113/59/113 16/26/16
f 16/26/16 32/22/32 31/29/31 15/30/15
f 16/26/16 113/59/113 1/16/1
f 17/15/17 33/21/33 48/25/48 32/22/32
f 18/9/18 34/12/34 33/21/33 17/15/17
f 19/5/19 35/4/35 34/12/34 18/9/18
f 20/108/20 36/112/36 35/120/35 19/115/19
f 21/104/21 37/103/37 36/112/36 20/108/20
f 22/94/22 38/100/38 37/103/37 21/104/21
f 23/88/23 39/87/39 38/100/38 22/94/22
f 24/80/24 40/86/40 39/87/39 23/88/23
f 25/73/25 41/78/41 40/86/40 24/80/24
f 26/72/26 42/71/42 41/78/41 25/73/25
f 27/57/27 43/63/43 42/71/42 26/72/26
f 28/50/28 44/55/44 43/63/43 27/57/27
f 29/45/29 45/44/45 44/55/44 28/50/28
f 30/36/30 46/39/46 45/44/45 29/45/29
f 31/29/31 47/31/47 46/39/46 30/36/30
f 32/22/32 48/25/48 47/31/47 31/29/31
f 33/21/33 49/20/49 64/24/64 48/25/48
f 34/12/34 50/11/50 49/20/49 33/21/33
f 35/4/35 51/3/51 50/11/50 34/12/34
f 36/112/36 52/111/52 51/119/51 35/120/35
f 37/103/37 53/102/53 52/111/52 36/112/36
f 38/100/38 54/99/54 53/102/53 37/103/37
f 39/87/39 55/92/55 54/99/54 38/100/38
f 40/86/40 56/85/56 55/92/55 39/87/39
f 41/78/41 57/77/57 56/85/56 40/86/40
f 42/71/42 58/70/58 57/77/57 41/78/41
f 43/63/43 59/62/59 58/70/58 42/71/42
f 44/55/44 60/54/60 59/62/59 43/63/43
f 45/44/45 61/43/61 60/54/60 44/55/44
f 46/39/46 62/38/62 61/43/61 45/44/45
f 47/31/47 63/35/63 62/38/62 46/39/46
f 48/25/48 64/24/64 63/35/63 47/31/47
f 49/20/49 65/19/65 80/23/80 64/24/64
f 50/11/50 66/10/66 65/19/65 49/20/49
f 51/3/51 67/2/67 66/10/66 50/11/50
f 52/111/52 68/110/68 67/118/67 51/119/51
f 53/102/53 69/101/69 68/110/68 52/111/52
f 54/99/54 70/98/70 69/101/69 53/102/53
f 55/92/55 71/91/71 70/98/70 54/99/54
f 56/85/56 72/84/72 71/91/71 55/92/55
f 57/77/57 73/76/73 72/84/72 56/85/56
f 58/70/58 74/69/74 73/76/73 57/77/57
f 59/62/59 75/61/75 74/69/74 58/70/58
f 60/54/60 76/53/76 75/61/75 59/62/59
f 61/43/61 77/47/77 76/53/76 60/54/60
f 62/38/62 78/41/78 77/47/77 61/43/61
f 63/35/63 79/34/79 78/41/78 62/38/62
f 64/24/64 80/23/80 79/34/79 63/35/63
f 65/19/65 81/18/81 96/28/96 80/23/80
f 66/10/66 82/14/82 81/18/81 65/19/65
f 67/2/67 83/7/83 82/14/82 66/10/66
f 68/110/68 84/114/84 83/117/83 67/118/67
f 69/101/69 85/107/85 84/114/84 68/110/68
f 70/98/70 86/97/86 85/107/85 69/101/69
f 71/91/71 87/90/87 86/97/86 70/98/70
f 72/84/72 88/83/88 87/90/87 71/91/71
f 73/76/73 89/75/89 88/83/88 72/84/72
f 74/69/74 90/68/90 89/75/89 73/76/73
f 75/61/75 91/60/91 90/68/90 74/69/74
f 76/53/76 92/52/92 91/60/91 75/61/75
f 77/47/77 93/49/93 92/52/92 76/53/76
f 78/41/78 94/40/94 93/49/93 77/47/77
f 79/34/79 95/33/95 94/40/94 78/41/78
f 80/23/80 96/28/96 95/33/95 79/34/79
f 81/18/81 97/17/97 112/27/112 96/28/96
f 82/14/82 98/13/98 97/17/97 81/18/81
f 83/7/83 99/6/99 98/13/98 82/14/82
f 84/114/84 100/113/100 99/121/99 83/117/83
f 85/107/85 101/106/101 100/113/100 84/114/84
f 86/97/86 102/96/102 101/106/101 85/107/85
f 87/90/87 103/89/103 102/96/102 86/97/86
f 88/83/88 104/82/104 103/89/103 87/90/87
f 89/75/89 105/74/105 104/82/104 88/83/88
f 90/68/90 106/67/106 105/74/105 89/75/89
f 91/60/91 107/65/107 106/67/106 90/68/90
f 92/52/92 108/56/108 107/65/107 91/60/91
f 93/49/93 109/48/109 108/56/108 92/52/92
f 94/40/94 110/42/110 109/48/109 93/49/93
f 95/33/95 111/32/111 110/42/110 94/40/94
f 96/28/96 112/27/112 111/32/111 95/33/95
f 97/17/97 114/64/114 112/27/112
f 98/13/98 114/64/114 97/17/97
f 99/6/99 114/64/114 98/13/98
f 100/113/100 114/64/114 99/121/99
f 101/106/101 114/64/114 100/113/100
f 102/96/102 114/64/114 101/106/101
f 103/89/103 114/64/114 102/96/102
f 104/82/104 114/64/114 103/89/103
f 105/74/105 114/64/114 104/82/104
f 106/67/106 114/64/114 105/74/105
f 107/65/107 114/64/114 106/67/106
f 108/56/108 114/64/114 107/65/107
f 109/48/109 114/64/114 108/56/108
f 110/42/110 114/64/114 109/48/109
f 111/32/111 114/64/114 110/42/110
f 112/27/112 114/64/114 111/32/111
