# Exported from Wings 3D 1.4.1
mtllib ship.mtl
o cylinder1
#5 vertices, 5 faces
v 0.0000000e+0 0.0000000e+0 0.0000000e+0
v -1.50000000 0.17800000 0.86602540
v -1.50000000 0.17800000 -0.86602540
v -1.50000000 -0.17800000 0.86602540
v -1.50000000 -0.17800000 -0.86602540
vn 1.00000000 0.0000000e+0 -2.1870594e-16
vn -0.27855893 0.72382774 0.63125139
vn -0.27855893 0.72382774 -0.63125139
vn -0.27855893 -0.72382774 0.63125139
vn -0.27855893 -0.72382774 -0.63125139
g cylinder1_default
usemtl default
s 1
f 1//1 3//3 2//2
f 1//1 5//5 3//3
f 2//2 4//4 1//1
f 3//3 5//5 4//4 2//2
f 5//5 1//1 4//4
